<?xml version="1.0" encoding="utf-8"?>
<!-- Generator: Adobe Illustrator 22.0.1, SVG Export Plug-In . SVG Version: 6.00 Build 0)  -->
<svg version="1.1" id="Layer_1" xmlns="http://www.w3.org/2000/svg" xmlns:xlink="http://www.w3.org/1999/xlink" x="0px" y="0px"
	 viewBox="0 0 95.9 102.5" style="enable-background:new 0 0 95.9 102.5;" xml:space="preserve">
<style type="text/css">
	.st0{fill:#195073;}
	.st1{fill:#008BD8;}
	.st2{fill:none;}
</style>
<g id="Film_01">
</g>
<g id="New_Symbol_8">
</g>
<g>
	<path class="st0" d="M26,102.5l-1.1-3.8h-5.2l-1.2,3.8h-4.9l6-19.5H26l6.1,19.5H26z M20.7,94.4h3.2l-1.6-5.7L20.7,94.4z"/>
	<path class="st0" d="M33.9,102.5V83h9.9c2.1,0,3.6,0.5,4.5,1.6c0.9,1,1.4,2.2,1.4,3.6c0,1-0.3,1.8-0.8,2.6
		c-0.5,0.8-1.4,1.3-2.4,1.6c2.5,0.6,3.8,2.1,3.8,4.5c0,1.4-0.4,2.7-1.3,3.9c-0.9,1.1-2.8,1.7-5.7,1.7H33.9z M39.4,90.5h2.8
		c0.7,0,1.2-0.2,1.5-0.5c0.3-0.4,0.4-0.7,0.4-1.1c0-1.1-0.7-1.6-2-1.6h-2.7V90.5z M39.4,98.2h2.9c0.7,0,1.3-0.2,1.6-0.5
		c0.3-0.4,0.5-0.8,0.5-1.2s-0.2-0.9-0.5-1.2c-0.3-0.4-0.9-0.6-1.8-0.6h-2.7V98.2z"/>
	<path class="st0" d="M80.2,102.5l-1.1-3.8h-5.2l-1.2,3.8h-4.9l6-19.5h6.3l6.1,19.5H80.2z M74.9,94.4h3.2l-1.6-5.7L74.9,94.4z"/>
	<g>
		<g>
			<polygon class="st0" points="33.7,44.4 33.7,5.6 25.3,9 25.3,41 26.1,41.3 			"/>
			<path class="st1" d="M41.2,47.4v24.1c2.1-0.1,4.2-0.2,6.3-0.2V32.3l2.2-0.9l7.2-2.9l1.2-0.5l0.4-0.2l3.4-1.4l6.8-2.7l1.3-0.5V9
				L47.6,0l-9.8,4V46l1.2,0.5L41.2,47.4z"/>
			<path class="st0" d="M58.1,71.7V31.9l-7,2.8v36.6C53.4,71.4,55.7,71.5,58.1,71.7z"/>
			<path class="st1" d="M88.7,79.4L88.7,79.4l0.1-44.6l-18.9-7.6l0,0l-8.1,3.3v41.7C71.2,73.4,80.2,75.8,88.7,79.4z"/>
			<path class="st0" d="M15.5,76.5V48.4l-3.7,1.5v27.9C13,77.3,14.2,76.9,15.5,76.5z"/>
			<path class="st1" d="M37.6,71.8v-22l-3.9-1.6l-8.5-3.4l-0.5-0.2L19,46.9v28.5C25.1,73.6,31.3,72.4,37.6,71.8z"/>
		</g>
		<g>
			<path class="st0" d="M95.9,82.7c0,0-1.5-0.6-4-1.6c-1.3-0.6-2.9-1-4.6-1.7c-1.8-0.7-3.8-1.2-6-1.9c-0.6-0.2-1.1-0.3-1.7-0.5
				c-0.6-0.1-1.2-0.3-1.8-0.4c-1.2-0.3-2.5-0.6-3.7-0.9c-1.3-0.3-2.6-0.5-4-0.7c-1.4-0.2-2.7-0.5-4.2-0.7c-1.4-0.2-2.9-0.4-4.3-0.6
				c-1.5-0.2-3-0.2-4.5-0.4c-0.7-0.1-1.5-0.1-2.3-0.2c-0.8,0-1.5,0-2.3-0.1c-1.5,0-3-0.1-4.6-0.1c-1.5,0-3.1,0.1-4.6,0.1
				c-0.8,0-1.5,0-2.3,0.1c-0.7,0.1-1.5,0.1-2.2,0.2c-1.5,0.1-3,0.2-4.4,0.4c-1.5,0.2-2.9,0.4-4.3,0.6c-1.4,0.1-2.8,0.4-4.2,0.7
				c-1.4,0.3-2.7,0.5-4,0.7c-1.3,0.3-2.5,0.6-3.7,0.9c-0.6,0.1-1.2,0.3-1.8,0.4c-0.6,0.2-1.1,0.3-1.7,0.5c-2.2,0.7-4.3,1.2-6.1,1.9
				C6.9,80,5.3,80.4,4,81c-2.5,1.1-4,1.6-4,1.6s1.3-0.9,3.8-2.3c1.2-0.8,2.7-1.5,4.4-2.4c0.4-0.2,0.9-0.4,1.3-0.7
				c0.2-0.1,0.5-0.2,0.7-0.4c0.2-0.1,0.5-0.2,0.7-0.3c1-0.4,2.1-0.8,3.2-1.3c0.6-0.2,1.1-0.5,1.7-0.7c0.6-0.2,1.2-0.4,1.8-0.6
				c1.2-0.4,2.5-0.8,3.8-1.2c1.3-0.4,2.7-0.7,4-1c1.4-0.4,2.8-0.7,4.2-0.9c1.5-0.3,2.9-0.5,4.4-0.8c1.5-0.2,3-0.3,4.6-0.5
				c0.8-0.1,1.5-0.2,2.3-0.2c0.8-0.1,1.5-0.1,2.3-0.1c1.6-0.1,3.1-0.1,4.7-0.2c1.6,0.1,3.1,0.1,4.7,0.2c0.8,0,1.6,0,2.3,0.1
				c0.8,0.1,1.5,0.2,2.3,0.2c1.5,0.2,3.1,0.3,4.6,0.5c1.5,0.3,3,0.5,4.4,0.8c1.5,0.2,2.9,0.6,4.2,0.9c1.4,0.4,2.7,0.7,4,1
				c1.3,0.4,2.5,0.8,3.8,1.2c0.6,0.2,1.2,0.4,1.8,0.6c0.6,0.2,1.1,0.5,1.7,0.7c1.1,0.5,2.2,0.9,3.2,1.3c0.3,0.1,0.5,0.2,0.7,0.3
				c0.2,0.1,0.5,0.2,0.7,0.4c0.5,0.2,0.9,0.5,1.4,0.7c1.7,0.9,3.3,1.6,4.4,2.4C94.6,81.8,95.9,82.7,95.9,82.7z"/>
		</g>
	</g>
	<path class="st2" d="M58.9,94.7h-2.7v3.5h2.9c0.7,0,1.3-0.2,1.6-0.5c0.3-0.4,0.5-0.8,0.5-1.2s-0.2-0.9-0.5-1.2
		C60.4,94.8,59.8,94.7,58.9,94.7z"/>
	<path class="st2" d="M57.4,90c0.3-0.4,0.4-0.7,0.4-1.1c0-1.1-0.7-1.6-2-1.6h-2.7v3.3h2.8C56.6,90.5,57.1,90.3,57.4,90z"/>
	<path class="st0" d="M63.2,92.4c1.1-0.3,1.9-0.8,2.4-1.6c0.5-0.8,0.8-1.7,0.8-2.6c0-1.3-0.5-2.5-1.4-3.6c-0.9-1-2.4-1.6-4.5-1.6
		h-9.7c1.2,1.5,1.8,3.2,1.8,5.1c0,1.4-0.4,2.8-1.1,4c1.1,1.3,1.6,2.9,1.6,4.8c0,2.1-0.6,3.9-1.9,5.6H60c2.9,0,4.8-0.6,5.7-1.7
		c0.9-1.1,1.3-2.4,1.3-3.9C67,94.5,65.7,93,63.2,92.4z M56.2,87.2h2.7c1.3,0,2,0.5,2,1.6c0,0.4-0.1,0.8-0.4,1.1
		c-0.3,0.4-0.8,0.5-1.5,0.5h-2.8V87.2z M60.7,97.7c-0.3,0.4-0.9,0.5-1.6,0.5h-2.9v-3.5h2.7c0.9,0,1.5,0.2,1.8,0.6
		c0.3,0.4,0.5,0.8,0.5,1.2S61,97.3,60.7,97.7z"/>
</g>
</svg>
